<svg width="353" height="180" viewBox="0 0 353 180" fill="none" xmlns="http://www.w3.org/2000/svg">
<style>@media(prefers-color-scheme:dark){path{filter:invert(1)}}</style>
<path d="M17.233 160.05C17.1391 159.44 17.0569 158.7 16.9864 157.831C16.9277 156.962 16.8807 156.017 16.8455 154.995C16.822 153.973 16.8103 152.934 16.8103 151.877C16.8103 150.55 16.8338 149.258 16.8807 148.002C16.9277 146.745 16.9982 145.641 17.0921 144.69L20.3332 144.743C20.204 145.577 20.1042 146.557 20.0338 147.685C19.975 148.812 19.9457 150.092 19.9457 151.525C19.9457 152.981 19.9692 154.443 20.0161 155.911C20.0749 157.379 20.1394 158.723 20.2099 159.945L17.233 160.05ZM31.1584 160.262C30.172 160.262 29.2619 160.056 28.4281 159.645C27.5944 159.234 26.925 158.647 26.42 157.884C25.9151 157.109 25.6626 156.187 25.6626 155.118C25.6626 153.92 25.8975 152.869 26.3672 151.965C26.8369 151.061 27.4945 150.362 28.34 149.869C29.1856 149.364 30.172 149.112 31.2993 149.112C32.3797 149.112 33.2956 149.335 34.0472 149.781C34.7988 150.215 35.4681 150.908 36.0553 151.859L33.6068 153.55C33.278 153.022 32.9433 152.623 32.6028 152.353C32.2622 152.071 31.7984 151.93 31.2112 151.93C30.4127 151.93 29.7668 152.212 29.2736 152.775C28.7804 153.327 28.5338 154.067 28.5338 154.995C28.5338 155.535 28.663 155.975 28.9213 156.316C29.1914 156.657 29.5202 156.909 29.9078 157.073C30.2953 157.238 30.6593 157.32 30.9999 157.32C31.3522 157.32 31.6927 157.279 32.0215 157.197C32.3503 157.103 32.6615 156.903 32.9551 156.598C33.2487 156.292 33.5129 155.829 33.7478 155.206L36.39 156.615C36.0377 157.261 35.6443 157.86 35.2098 158.412C34.7753 158.964 34.2351 159.41 33.5892 159.751C32.9551 160.091 32.1448 160.262 31.1584 160.262ZM42.7881 160.279C41.8486 160.279 41.0266 160.127 40.322 159.821C39.6292 159.516 39.0538 159.099 38.5958 158.571C38.1378 158.03 37.7972 157.414 37.5741 156.721C37.351 156.028 37.2395 155.3 37.2395 154.537C37.2395 153.762 37.3745 153.046 37.6446 152.388C37.9264 151.719 38.3081 151.137 38.7895 150.644C39.2828 150.151 39.8582 149.769 40.5158 149.499C41.1734 149.217 41.8897 149.076 42.6648 149.076C43.475 149.076 44.2266 149.217 44.9195 149.499C45.6123 149.781 46.2171 150.174 46.7338 150.679C47.2505 151.184 47.6497 151.777 47.9316 152.458C48.2251 153.139 48.3719 153.879 48.3719 154.678C48.3719 156.451 47.8846 157.831 46.9099 158.817C45.9352 159.792 44.5613 160.279 42.7881 160.279ZM42.7705 157.426C43.6277 157.426 44.2795 157.185 44.7257 156.703C45.1837 156.222 45.4127 155.529 45.4127 154.625C45.4127 153.815 45.1661 153.163 44.6728 152.67C44.1796 152.177 43.5338 151.93 42.7352 151.93C42.2538 151.93 41.8134 152.059 41.4141 152.317C41.0149 152.564 40.6919 152.899 40.4453 153.321C40.2105 153.732 40.093 154.19 40.093 154.695C40.093 155.142 40.1811 155.576 40.3572 155.999C40.5451 156.422 40.8387 156.768 41.238 157.038C41.6372 157.297 42.1481 157.426 42.7705 157.426ZM54.1915 160.226C53.5809 160.226 52.982 160.121 52.3948 159.909C51.8194 159.698 51.2968 159.369 50.8271 158.923C50.3691 158.488 50.0051 157.942 49.735 157.285C49.4649 156.615 49.3299 155.835 49.3299 154.942C49.3299 153.932 49.4825 153.063 49.7878 152.335C50.1049 151.595 50.5218 150.99 51.0385 150.521C51.5552 150.039 52.1306 149.681 52.7647 149.446C53.3989 149.211 54.033 149.094 54.6671 149.094C55.0429 149.094 55.4011 149.123 55.7416 149.182C56.0822 149.229 56.3992 149.299 56.6928 149.393C56.728 148.536 56.7691 147.673 56.8161 146.804C56.8748 145.935 56.9394 145.078 57.0099 144.232L59.9691 144.426C59.8752 145.401 59.793 146.452 59.7225 147.579C59.6521 148.695 59.5992 149.834 59.564 150.996C59.5405 152.159 59.5288 153.292 59.5288 154.396C59.5288 155.429 59.5405 156.416 59.564 157.355C59.5992 158.283 59.6403 159.128 59.6873 159.892L56.64 160.121C56.6282 159.898 56.6223 159.68 56.6223 159.469C56.2818 159.692 55.906 159.874 55.495 160.015C55.0957 160.156 54.6612 160.226 54.1915 160.226ZM52.1658 154.783C52.1658 155.394 52.2833 155.876 52.5181 156.228C52.753 156.568 53.0407 156.809 53.3812 156.95C53.7218 157.091 54.0506 157.161 54.3677 157.161C54.7434 157.161 55.1192 157.079 55.495 156.915C55.8708 156.75 56.2231 156.463 56.5519 156.052C56.5519 155.911 56.5519 155.776 56.5519 155.647C56.5519 154.695 56.5636 153.721 56.5871 152.723C56.0352 152.241 55.4363 152 54.7904 152C54.5203 152 54.2326 152.041 53.9273 152.124C53.622 152.206 53.3343 152.353 53.0642 152.564C52.8058 152.764 52.5886 153.046 52.4124 153.41C52.248 153.762 52.1658 154.22 52.1658 154.783ZM66.7007 160.244C65.5734 160.244 64.5811 160.021 63.7238 159.575C62.8783 159.14 62.2148 158.53 61.7334 157.743C61.2636 156.956 61.0288 156.046 61.0288 155.012C61.0288 154.39 61.1345 153.738 61.3458 153.057C61.5572 152.364 61.8978 151.719 62.3675 151.12C62.8372 150.521 63.4537 150.033 64.217 149.658C64.9921 149.282 65.9315 149.094 67.0354 149.094C67.8339 149.094 68.5033 149.182 69.0434 149.358C69.5954 149.534 70.0416 149.763 70.3822 150.045C70.7345 150.327 70.9987 150.626 71.1748 150.943C71.3627 151.261 71.486 151.566 71.5447 151.859C71.6152 152.141 71.6504 152.376 71.6504 152.564C71.6504 153.703 71.1689 154.584 70.206 155.206C69.2548 155.817 67.9044 156.122 66.1546 156.122C65.7554 156.122 65.3737 156.105 65.0097 156.069C64.6574 156.034 64.3286 155.993 64.0233 155.946C64.2464 156.533 64.6163 156.968 65.133 157.25C65.6497 157.52 66.184 157.655 66.7359 157.655C67.5345 157.655 68.239 157.514 68.8497 157.232C69.4603 156.938 70.0357 156.492 70.5759 155.893L72.1436 158.148C71.7678 158.453 71.3451 158.77 70.8754 159.099C70.4174 159.428 69.8537 159.698 69.1844 159.909C68.515 160.132 67.6871 160.244 66.7007 160.244ZM67.0882 151.736C66.3954 151.736 65.7847 151.912 65.2563 152.265C64.7278 152.617 64.3403 153.081 64.0937 153.656C64.3873 153.703 64.675 153.744 64.9568 153.779C65.2504 153.803 65.5381 153.815 65.82 153.815C66.0783 153.815 66.3719 153.791 66.7007 153.744C67.0412 153.697 67.37 153.627 67.6871 153.533C68.0159 153.439 68.286 153.321 68.4974 153.181C68.7088 153.028 68.8145 152.852 68.8145 152.652C68.8145 152.558 68.7675 152.441 68.6735 152.3C68.5796 152.159 68.4093 152.03 68.1627 151.912C67.9161 151.795 67.5579 151.736 67.0882 151.736ZM75.1994 160.262C74.7531 160.262 74.3832 160.162 74.0896 159.962C73.7961 159.763 73.5788 159.504 73.4379 159.187C73.297 158.87 73.2265 158.541 73.2265 158.201C73.2265 157.555 73.432 157.062 73.843 156.721C74.254 156.369 74.7472 156.193 75.3227 156.193C75.9098 156.193 76.3737 156.369 76.7142 156.721C77.0548 157.073 77.225 157.543 77.225 158.13C77.225 158.882 77.0195 159.422 76.6085 159.751C76.2093 160.091 75.7395 160.262 75.1994 160.262ZM83.0473 160.05C82.9533 159.44 82.8711 158.7 82.8006 157.831C82.7419 156.962 82.695 156.017 82.6597 154.995C82.6362 153.973 82.6245 152.934 82.6245 151.877C82.6245 150.55 82.648 149.258 82.695 148.002C82.7419 146.745 82.8124 145.641 82.9063 144.69L86.1474 144.743C86.0183 145.577 85.9184 146.557 85.848 147.685C85.7893 148.812 85.7599 150.092 85.7599 151.525C85.7599 152.981 85.7834 154.443 85.8304 155.911C85.8891 157.379 85.9537 158.723 86.0241 159.945L83.0473 160.05ZM96.2328 160.226C95.6222 160.226 95.0233 160.121 94.4361 159.909C93.8607 159.698 93.3381 159.369 92.8684 158.923C92.4104 158.488 92.0464 157.942 91.7763 157.285C91.5062 156.615 91.3711 155.835 91.3711 154.942C91.3711 153.932 91.5238 153.063 91.8291 152.335C92.1462 151.595 92.5631 150.99 93.0798 150.521C93.5965 150.039 94.1719 149.681 94.806 149.446C95.4401 149.211 96.0743 149.094 96.7084 149.094C97.0842 149.094 97.4423 149.123 97.7829 149.182C98.1234 149.229 98.4405 149.299 98.7341 149.393C98.7693 148.536 98.8104 147.673 98.8574 146.804C98.9161 145.935 98.9807 145.078 99.0511 144.232L102.01 144.426C101.916 145.401 101.834 146.452 101.764 147.579C101.693 148.695 101.641 149.834 101.605 150.996C101.582 152.159 101.57 153.292 101.57 154.396C101.57 155.429 101.582 156.416 101.605 157.355C101.641 158.283 101.682 159.128 101.729 159.892L98.6812 160.121C98.6695 159.898 98.6636 159.68 98.6636 159.469C98.3231 159.692 97.9473 159.874 97.5363 160.015C97.137 160.156 96.7025 160.226 96.2328 160.226ZM94.2071 154.783C94.2071 155.394 94.3245 155.876 94.5594 156.228C94.7943 156.568 95.082 156.809 95.4225 156.95C95.7631 157.091 96.0919 157.161 96.4089 157.161C96.7847 157.161 97.1605 157.079 97.5363 156.915C97.9121 156.75 98.2644 156.463 98.5932 156.052C98.5932 155.911 98.5932 155.776 98.5932 155.647C98.5932 154.695 98.6049 153.721 98.6284 152.723C98.0765 152.241 97.4776 152 96.8317 152C96.5616 152 96.2739 152.041 95.9686 152.124C95.6633 152.206 95.3756 152.353 95.1055 152.564C94.8471 152.764 94.6299 153.046 94.4537 153.41C94.2893 153.762 94.2071 154.22 94.2071 154.783ZM103.352 160.209C103.399 159.234 103.434 158.259 103.458 157.285C103.481 156.31 103.493 155.347 103.493 154.396C103.481 153.527 103.463 152.67 103.44 151.824C103.428 150.967 103.399 150.139 103.352 149.341L106.311 149.252C106.323 149.687 106.341 150.133 106.364 150.591C106.74 150.121 107.174 149.746 107.667 149.464C108.172 149.17 108.748 149.023 109.394 149.023C109.64 149.023 109.957 149.059 110.345 149.129C110.732 149.2 111.126 149.335 111.525 149.534L111.19 152.511C110.897 152.335 110.58 152.212 110.239 152.141C109.91 152.059 109.634 152.018 109.411 152.018C108.66 152.018 108.02 152.359 107.491 153.04C106.975 153.709 106.622 154.643 106.434 155.84C106.434 156.662 106.423 157.449 106.399 158.201C106.387 158.941 106.358 159.61 106.311 160.209H103.352ZM116.668 160.226C115.787 160.226 114.989 159.997 114.273 159.539C113.556 159.093 112.987 158.488 112.564 157.725C112.153 156.95 111.947 156.087 111.947 155.136C111.947 154.243 112.112 153.439 112.441 152.723C112.769 151.995 113.216 151.372 113.779 150.855C114.355 150.339 115.007 149.945 115.735 149.675C116.463 149.393 117.226 149.252 118.024 149.252C118.694 149.252 119.351 149.346 119.997 149.534C120.044 149.288 120.085 149.041 120.121 148.795L123.133 149.305C123.051 149.528 122.968 149.863 122.886 150.309C122.804 150.756 122.733 151.255 122.675 151.807C122.628 152.359 122.587 152.91 122.551 153.462C122.516 154.014 122.499 154.513 122.499 154.96C122.499 155.324 122.522 155.682 122.569 156.034C122.628 156.375 122.745 156.657 122.921 156.88C123.098 157.091 123.368 157.197 123.732 157.197H123.978L123.538 160.262C122.763 160.262 122.123 160.127 121.618 159.857C121.113 159.598 120.708 159.246 120.402 158.8C119.898 159.363 119.322 159.739 118.676 159.927C118.03 160.127 117.361 160.226 116.668 160.226ZM114.836 155.488C114.895 156.052 115.124 156.504 115.523 156.844C115.934 157.173 116.451 157.338 117.073 157.338C117.672 157.338 118.171 157.179 118.571 156.862C118.97 156.533 119.299 156.087 119.557 155.523C119.545 155.335 119.539 155.142 119.539 154.942C119.539 154.531 119.551 154.108 119.575 153.674C119.598 153.239 119.627 152.811 119.663 152.388C119.169 152.2 118.653 152.106 118.113 152.106C117.478 152.106 116.909 152.235 116.404 152.494C115.911 152.74 115.523 153.087 115.241 153.533C114.96 153.979 114.819 154.496 114.819 155.083C114.819 155.153 114.819 155.224 114.819 155.294C114.819 155.365 114.824 155.429 114.836 155.488ZM128.99 160.279C128.015 160.279 127.187 159.522 126.506 158.007C126.271 157.467 126.066 156.874 125.89 156.228C125.714 155.582 125.561 154.924 125.432 154.255C125.314 153.586 125.214 152.946 125.132 152.335C125.062 151.713 125.003 151.167 124.956 150.697C124.921 150.215 124.892 149.851 124.868 149.605L127.757 148.935C127.898 151.601 128.109 153.627 128.391 155.012C128.685 156.398 128.908 157.091 129.06 157.091C129.143 157.091 129.242 156.927 129.36 156.598C129.489 156.269 129.63 155.835 129.783 155.294C129.935 154.742 130.082 154.138 130.223 153.48C130.364 152.822 130.487 152.159 130.593 151.49C130.452 150.632 130.358 149.951 130.311 149.446L133.288 149.341V149.552C133.288 150.033 133.323 150.597 133.394 151.243C133.464 151.889 133.552 152.558 133.658 153.251C133.763 153.932 133.875 154.566 133.992 155.153C134.122 155.741 134.245 156.216 134.362 156.58C134.48 156.944 134.58 157.126 134.662 157.126C134.732 157.126 134.832 156.968 134.961 156.651C135.09 156.334 135.231 155.899 135.384 155.347C135.548 154.795 135.713 154.167 135.877 153.462C136.042 152.746 136.2 151.995 136.353 151.208C136.506 150.409 136.629 149.617 136.723 148.83L139.629 149.446C139.43 150.562 139.189 151.672 138.907 152.775C138.637 153.868 138.349 154.883 138.044 155.823C137.739 156.75 137.439 157.531 137.146 158.166C136.488 159.563 135.672 160.262 134.697 160.262C134.38 160.262 134.016 160.162 133.605 159.962C133.206 159.774 132.836 159.375 132.495 158.764C132.378 158.541 132.26 158.271 132.143 157.954C132.026 157.637 131.914 157.285 131.808 156.897C131.667 157.332 131.526 157.719 131.386 158.06C130.763 159.539 129.965 160.279 128.99 160.279ZM142.785 160.262C142.339 160.262 141.969 160.162 141.676 159.962C141.382 159.763 141.165 159.504 141.024 159.187C140.883 158.87 140.813 158.541 140.813 158.201C140.813 157.555 141.018 157.062 141.429 156.721C141.84 156.369 142.333 156.193 142.909 156.193C143.496 156.193 143.96 156.369 144.3 156.721C144.641 157.073 144.811 157.543 144.811 158.13C144.811 158.882 144.606 159.422 144.195 159.751C143.795 160.091 143.326 160.262 142.785 160.262ZM150.633 160.05C150.539 159.44 150.457 158.7 150.387 157.831C150.328 156.962 150.281 156.017 150.246 154.995C150.222 153.973 150.211 152.934 150.211 151.877C150.211 150.55 150.234 149.258 150.281 148.002C150.328 146.745 150.398 145.641 150.492 144.69L153.733 144.743C153.604 145.577 153.504 146.557 153.434 147.685C153.375 148.812 153.346 150.092 153.346 151.525C153.346 152.981 153.369 154.443 153.416 155.911C153.475 157.379 153.54 158.723 153.61 159.945L150.633 160.05ZM163.819 160.226C163.208 160.226 162.609 160.121 162.022 159.909C161.447 159.698 160.924 159.369 160.454 158.923C159.996 158.488 159.632 157.942 159.362 157.285C159.092 156.615 158.957 155.835 158.957 154.942C158.957 153.932 159.11 153.063 159.415 152.335C159.732 151.595 160.149 150.99 160.666 150.521C161.182 150.039 161.758 149.681 162.392 149.446C163.026 149.211 163.66 149.094 164.294 149.094C164.67 149.094 165.028 149.123 165.369 149.182C165.709 149.229 166.027 149.299 166.32 149.393C166.355 148.536 166.396 147.673 166.443 146.804C166.502 145.935 166.567 145.078 166.637 144.232L169.596 144.426C169.502 145.401 169.42 146.452 169.35 147.579C169.279 148.695 169.227 149.834 169.191 150.996C169.168 152.159 169.156 153.292 169.156 154.396C169.156 155.429 169.168 156.416 169.191 157.355C169.227 158.283 169.268 159.128 169.315 159.892L166.267 160.121C166.256 159.898 166.25 159.68 166.25 159.469C165.909 159.692 165.533 159.874 165.122 160.015C164.723 160.156 164.289 160.226 163.819 160.226ZM161.793 154.783C161.793 155.394 161.911 155.876 162.145 156.228C162.38 156.568 162.668 156.809 163.009 156.95C163.349 157.091 163.678 157.161 163.995 157.161C164.371 157.161 164.747 157.079 165.122 156.915C165.498 156.75 165.85 156.463 166.179 156.052C166.179 155.911 166.179 155.776 166.179 155.647C166.179 154.695 166.191 153.721 166.214 152.723C165.662 152.241 165.064 152 164.418 152C164.148 152 163.86 152.041 163.555 152.124C163.249 152.206 162.962 152.353 162.691 152.564C162.433 152.764 162.216 153.046 162.04 153.41C161.875 153.762 161.793 154.22 161.793 154.783ZM176.328 160.244C175.201 160.244 174.208 160.021 173.351 159.575C172.506 159.14 171.842 158.53 171.361 157.743C170.891 156.956 170.656 156.046 170.656 155.012C170.656 154.39 170.762 153.738 170.973 153.057C171.184 152.364 171.525 151.719 171.995 151.12C172.464 150.521 173.081 150.033 173.844 149.658C174.619 149.282 175.559 149.094 176.663 149.094C177.461 149.094 178.131 149.182 178.671 149.358C179.223 149.534 179.669 149.763 180.009 150.045C180.362 150.327 180.626 150.626 180.802 150.943C180.99 151.261 181.113 151.566 181.172 151.859C181.242 152.141 181.278 152.376 181.278 152.564C181.278 153.703 180.796 154.584 179.833 155.206C178.882 155.817 177.532 156.122 175.782 156.122C175.383 156.122 175.001 156.105 174.637 156.069C174.285 156.034 173.956 155.993 173.651 155.946C173.874 156.533 174.244 156.968 174.76 157.25C175.277 157.52 175.811 157.655 176.363 157.655C177.162 157.655 177.866 157.514 178.477 157.232C179.088 156.938 179.663 156.492 180.203 155.893L181.771 158.148C181.395 158.453 180.972 158.77 180.503 159.099C180.045 159.428 179.481 159.698 178.812 159.909C178.142 160.132 177.314 160.244 176.328 160.244ZM176.716 151.736C176.023 151.736 175.412 151.912 174.884 152.265C174.355 152.617 173.968 153.081 173.721 153.656C174.015 153.703 174.302 153.744 174.584 153.779C174.878 153.803 175.165 153.815 175.447 153.815C175.706 153.815 175.999 153.791 176.328 153.744C176.669 153.697 176.997 153.627 177.314 153.533C177.643 153.439 177.913 153.321 178.125 153.181C178.336 153.028 178.442 152.852 178.442 152.652C178.442 152.558 178.395 152.441 178.301 152.3C178.207 152.159 178.037 152.03 177.79 151.912C177.543 151.795 177.185 151.736 176.716 151.736ZM188.314 160.297C187.516 160.297 186.776 160.203 186.095 160.015C185.414 159.827 184.797 159.586 184.245 159.293C183.693 158.999 183.2 158.688 182.766 158.359L184.351 155.805C184.844 156.263 185.32 156.615 185.778 156.862C186.236 157.109 186.711 157.279 187.205 157.373C187.71 157.467 188.256 157.514 188.843 157.514C189.348 157.514 189.753 157.449 190.058 157.32C190.364 157.179 190.516 157.003 190.516 156.792C190.516 156.615 190.369 156.48 190.076 156.386C189.782 156.281 189.406 156.193 188.948 156.122C188.491 156.04 188.009 155.94 187.504 155.823C186.788 155.635 186.118 155.418 185.496 155.171C184.874 154.924 184.369 154.59 183.981 154.167C183.605 153.744 183.417 153.181 183.417 152.476C183.417 151.912 183.553 151.419 183.823 150.996C184.093 150.562 184.451 150.204 184.897 149.922C185.355 149.628 185.872 149.411 186.447 149.27C187.023 149.129 187.616 149.059 188.226 149.059C189.283 149.059 190.193 149.188 190.957 149.446C191.732 149.693 192.471 150.022 193.176 150.433L191.573 152.863C191.221 152.617 190.816 152.406 190.358 152.229C189.911 152.041 189.459 151.901 189.001 151.807C188.555 151.701 188.138 151.648 187.751 151.648C187.328 151.648 186.993 151.713 186.747 151.842C186.512 151.971 186.394 152.153 186.394 152.388C186.394 152.529 186.541 152.664 186.835 152.793C187.14 152.91 187.715 153.069 188.561 153.269C189.066 153.386 189.6 153.509 190.164 153.639C190.728 153.756 191.256 153.926 191.749 154.149C192.254 154.361 192.659 154.672 192.965 155.083C193.282 155.482 193.44 156.017 193.44 156.686C193.44 157.813 192.988 158.694 192.084 159.328C191.18 159.974 189.923 160.297 188.314 160.297ZM194.746 147.456C194.746 147.35 194.74 147.244 194.728 147.139C194.728 147.021 194.728 146.892 194.728 146.751C194.728 146.375 194.74 145.976 194.763 145.553C194.787 145.131 194.81 144.772 194.834 144.479L197.969 144.532C197.934 144.931 197.893 145.383 197.846 145.888C197.811 146.393 197.787 146.916 197.775 147.456H194.746ZM194.675 160.068C194.64 159.34 194.616 158.565 194.605 157.743C194.593 156.909 194.587 156.075 194.587 155.241C194.587 154.149 194.599 153.087 194.622 152.053C194.646 151.02 194.675 150.08 194.71 149.235L197.74 149.217C197.693 149.757 197.664 150.427 197.652 151.225C197.64 152.012 197.634 152.84 197.634 153.709C197.634 154.566 197.64 155.412 197.652 156.246C197.664 157.079 197.676 157.837 197.687 158.518C197.711 159.187 197.728 159.704 197.74 160.068H194.675ZM203.53 158.923C202.79 158.923 202.162 158.811 201.645 158.588C201.128 158.365 200.699 158.077 200.359 157.725C200.03 157.361 199.772 156.974 199.584 156.563C199.396 156.14 199.267 155.735 199.196 155.347C199.126 154.948 199.091 154.601 199.091 154.308C199.091 153.744 199.167 153.163 199.32 152.564C199.484 151.965 199.754 151.407 200.13 150.891C200.517 150.374 201.04 149.957 201.698 149.64C202.367 149.323 203.207 149.164 204.217 149.164C204.522 149.164 204.804 149.188 205.062 149.235C205.32 149.282 205.561 149.346 205.784 149.429V148.847H208.832C208.82 149.552 208.808 150.35 208.796 151.243C208.785 152.124 208.779 153.122 208.779 154.237C208.779 154.813 208.779 155.418 208.779 156.052C208.791 156.674 208.796 157.355 208.796 158.095C208.796 159.105 208.661 159.933 208.391 160.579C208.121 161.225 207.775 161.724 207.352 162.076C206.929 162.428 206.489 162.681 206.031 162.833C205.585 162.998 205.168 163.092 204.78 163.115C204.404 163.15 204.123 163.168 203.935 163.168C203.477 163.168 202.972 163.115 202.42 163.01C201.868 162.916 201.316 162.757 200.764 162.534C200.212 162.323 199.707 162.047 199.249 161.706L200.535 159.029C200.829 159.275 201.122 159.498 201.416 159.698C201.709 159.909 202.05 160.074 202.437 160.191C202.825 160.32 203.306 160.385 203.882 160.385C204.469 160.385 204.904 160.279 205.185 160.068C205.467 159.868 205.649 159.598 205.731 159.258C205.825 158.929 205.878 158.565 205.89 158.166C205.491 158.459 205.086 158.659 204.675 158.764C204.264 158.87 203.882 158.923 203.53 158.923ZM201.733 154.061C201.733 154.731 201.915 155.259 202.279 155.647C202.655 156.034 203.166 156.228 203.811 156.228C204.716 156.228 205.391 155.705 205.837 154.66C205.837 154.284 205.831 153.903 205.819 153.515C205.819 153.116 205.814 152.728 205.802 152.353C205.332 152.047 204.792 151.895 204.181 151.895C203.43 151.895 202.831 152.094 202.385 152.494C201.95 152.881 201.733 153.404 201.733 154.061ZM210.49 160.103C210.455 159.07 210.425 158.113 210.402 157.232C210.39 156.351 210.384 155.482 210.384 154.625C210.384 153.768 210.39 152.91 210.402 152.053C210.425 151.184 210.461 150.257 210.507 149.27H213.484C213.437 149.799 213.396 150.333 213.361 150.873C213.76 150.368 214.236 149.951 214.788 149.622C215.34 149.282 215.992 149.112 216.743 149.112C217.483 149.112 218.088 149.235 218.557 149.481C219.039 149.728 219.415 150.069 219.685 150.503C219.967 150.938 220.166 151.437 220.284 152C220.413 152.552 220.495 153.151 220.53 153.797C220.565 154.431 220.583 155.071 220.583 155.717C220.583 156.422 220.571 157.097 220.548 157.743C220.524 158.389 220.501 158.929 220.477 159.363C220.454 159.798 220.436 160.056 220.425 160.138H217.465C217.489 159.657 217.512 159.146 217.536 158.606C217.559 158.054 217.583 157.514 217.606 156.985C217.63 156.445 217.641 155.958 217.641 155.523C217.641 153.022 217.236 151.771 216.426 151.771C215.757 151.771 215.146 152.065 214.594 152.652C214.054 153.228 213.602 153.956 213.238 154.836C213.238 154.954 213.238 155.071 213.238 155.189C213.238 155.752 213.238 156.339 213.238 156.95C213.25 157.549 213.261 158.124 213.273 158.676C213.296 159.217 213.314 159.686 213.326 160.086L210.49 160.103ZM226.277 147.456C226.277 147.35 226.271 147.244 226.259 147.139C226.259 147.021 226.259 146.892 226.259 146.751C226.259 146.375 226.271 145.976 226.294 145.553C226.318 145.131 226.341 144.772 226.365 144.479L229.5 144.532C229.465 144.931 229.424 145.383 229.377 145.888C229.342 146.393 229.318 146.916 229.306 147.456H226.277ZM226.206 160.068C226.171 159.34 226.147 158.565 226.136 157.743C226.124 156.909 226.118 156.075 226.118 155.241C226.118 154.149 226.13 153.087 226.153 152.053C226.177 151.02 226.206 150.08 226.241 149.235L229.271 149.217C229.224 149.757 229.195 150.427 229.183 151.225C229.171 152.012 229.165 152.84 229.165 153.709C229.165 154.566 229.171 155.412 229.183 156.246C229.195 157.079 229.207 157.837 229.218 158.518C229.242 159.187 229.259 159.704 229.271 160.068H226.206ZM231.115 160.103C231.08 159.07 231.05 158.113 231.027 157.232C231.015 156.351 231.009 155.482 231.009 154.625C231.009 153.768 231.015 152.91 231.027 152.053C231.05 151.184 231.086 150.257 231.132 149.27H234.109C234.062 149.799 234.021 150.333 233.986 150.873C234.385 150.368 234.861 149.951 235.413 149.622C235.965 149.282 236.617 149.112 237.368 149.112C238.108 149.112 238.713 149.235 239.182 149.481C239.664 149.728 240.04 150.069 240.31 150.503C240.592 150.938 240.791 151.437 240.909 152C241.038 152.552 241.12 153.151 241.155 153.797C241.19 154.431 241.208 155.071 241.208 155.717C241.208 156.422 241.196 157.097 241.173 157.743C241.149 158.389 241.126 158.929 241.102 159.363C241.079 159.798 241.061 160.056 241.05 160.138H238.09C238.114 159.657 238.137 159.146 238.161 158.606C238.184 158.054 238.208 157.514 238.231 156.985C238.255 156.445 238.266 155.958 238.266 155.523C238.266 153.022 237.861 151.771 237.051 151.771C236.382 151.771 235.771 152.065 235.219 152.652C234.679 153.228 234.227 153.956 233.863 154.836C233.863 154.954 233.863 155.071 233.863 155.189C233.863 155.752 233.863 156.339 233.863 156.95C233.875 157.549 233.886 158.124 233.898 158.676C233.921 159.217 233.939 159.686 233.951 160.086L231.115 160.103ZM248.214 160.226C247.509 160.226 246.951 160.074 246.54 159.768C246.129 159.475 245.83 159.064 245.642 158.535C245.454 158.007 245.331 157.402 245.272 156.721C245.225 156.04 245.202 155.324 245.202 154.572C245.202 153.797 245.231 152.993 245.29 152.159C244.503 152.265 243.745 152.4 243.017 152.564L242.471 149.799C243.446 149.54 244.485 149.352 245.589 149.235C245.671 148.636 245.759 148.008 245.853 147.35C245.947 146.681 246.053 145.976 246.17 145.236L249.2 145.501C249.059 146.111 248.936 146.722 248.83 147.332C248.724 147.931 248.631 148.513 248.548 149.076C249.206 149.076 249.822 149.094 250.398 149.129C250.985 149.153 251.525 149.2 252.018 149.27L251.666 152.036C251.255 151.989 250.826 151.959 250.38 151.948C249.946 151.924 249.505 151.912 249.059 151.912C248.789 151.912 248.519 151.918 248.249 151.93C248.178 152.787 248.131 153.521 248.108 154.132C248.096 154.742 248.09 155.177 248.09 155.435C248.09 156.081 248.126 156.545 248.196 156.827C248.278 157.109 248.407 157.25 248.584 157.25C248.783 157.25 249.006 157.185 249.253 157.056C249.5 156.915 249.74 156.727 249.975 156.492C250.222 156.257 250.427 156.005 250.592 155.735L251.948 158.571C250.785 159.675 249.541 160.226 248.214 160.226ZM258.587 160.244C257.46 160.244 256.468 160.021 255.61 159.575C254.765 159.14 254.101 158.53 253.62 157.743C253.15 156.956 252.915 156.046 252.915 155.012C252.915 154.39 253.021 153.738 253.232 153.057C253.444 152.364 253.784 151.719 254.254 151.12C254.724 150.521 255.34 150.033 256.103 149.658C256.879 149.282 257.818 149.094 258.922 149.094C259.72 149.094 260.39 149.182 260.93 149.358C261.482 149.534 261.928 149.763 262.269 150.045C262.621 150.327 262.885 150.626 263.061 150.943C263.249 151.261 263.372 151.566 263.431 151.859C263.502 152.141 263.537 152.376 263.537 152.564C263.537 153.703 263.055 154.584 262.092 155.206C261.141 155.817 259.791 156.122 258.041 156.122C257.642 156.122 257.26 156.105 256.896 156.069C256.544 156.034 256.215 155.993 255.91 155.946C256.133 156.533 256.503 156.968 257.019 157.25C257.536 157.52 258.07 157.655 258.622 157.655C259.421 157.655 260.126 157.514 260.736 157.232C261.347 156.938 261.922 156.492 262.462 155.893L264.03 158.148C263.654 158.453 263.232 158.77 262.762 159.099C262.304 159.428 261.74 159.698 261.071 159.909C260.401 160.132 259.574 160.244 258.587 160.244ZM258.975 151.736C258.282 151.736 257.671 151.912 257.143 152.265C256.614 152.617 256.227 153.081 255.98 153.656C256.274 153.703 256.561 153.744 256.843 153.779C257.137 153.803 257.425 153.815 257.706 153.815C257.965 153.815 258.258 153.791 258.587 153.744C258.928 153.697 259.257 153.627 259.574 153.533C259.902 153.439 260.172 153.321 260.384 153.181C260.595 153.028 260.701 152.852 260.701 152.652C260.701 152.558 260.654 152.441 260.56 152.3C260.466 152.159 260.296 152.03 260.049 151.912C259.803 151.795 259.444 151.736 258.975 151.736ZM265.324 160.209C265.371 159.234 265.407 158.259 265.43 157.285C265.454 156.31 265.465 155.347 265.465 154.396C265.454 153.527 265.436 152.67 265.412 151.824C265.401 150.967 265.371 150.139 265.324 149.341L268.284 149.252C268.295 149.687 268.313 150.133 268.336 150.591C268.712 150.121 269.147 149.746 269.64 149.464C270.145 149.17 270.72 149.023 271.366 149.023C271.613 149.023 271.93 149.059 272.317 149.129C272.705 149.2 273.098 149.335 273.498 149.534L273.163 152.511C272.869 152.335 272.552 152.212 272.212 152.141C271.883 152.059 271.607 152.018 271.384 152.018C270.632 152.018 269.992 152.359 269.464 153.04C268.947 153.709 268.595 154.643 268.407 155.84C268.407 156.662 268.395 157.449 268.372 158.201C268.36 158.941 268.331 159.61 268.284 160.209H265.324ZM276.703 160.103C276.691 159.446 276.685 158.776 276.685 158.095C276.685 157.402 276.685 156.733 276.685 156.087V151.912C276.192 151.948 275.717 152 275.259 152.071C274.812 152.141 274.396 152.229 274.008 152.335L273.638 149.517C274.061 149.423 274.542 149.341 275.082 149.27C275.634 149.2 276.204 149.147 276.791 149.112C276.862 148.466 276.979 147.837 277.143 147.227C277.32 146.616 277.566 146.07 277.883 145.589C278.2 145.095 278.617 144.702 279.134 144.408C279.651 144.115 280.291 143.968 281.054 143.968C282.029 143.968 282.968 144.168 283.872 144.567L283.273 147.368C282.498 147.015 281.858 146.839 281.353 146.839C280.813 146.839 280.437 147.033 280.226 147.421C280.015 147.796 279.88 148.331 279.821 149.023C280.455 149.035 281.054 149.065 281.618 149.112C282.193 149.147 282.692 149.194 283.115 149.252L282.833 152.018C282.422 151.948 281.94 151.895 281.389 151.859C280.848 151.812 280.279 151.789 279.68 151.789C279.656 152.388 279.639 152.975 279.627 153.55C279.615 154.114 279.609 154.678 279.609 155.241C279.609 155.993 279.615 156.768 279.627 157.567C279.651 158.353 279.674 159.199 279.698 160.103H276.703ZM288.532 160.226C287.651 160.226 286.852 159.997 286.136 159.539C285.42 159.093 284.85 158.488 284.427 157.725C284.016 156.95 283.811 156.087 283.811 155.136C283.811 154.243 283.975 153.439 284.304 152.723C284.633 151.995 285.079 151.372 285.643 150.855C286.218 150.339 286.87 149.945 287.598 149.675C288.326 149.393 289.09 149.252 289.888 149.252C290.557 149.252 291.215 149.346 291.861 149.534C291.908 149.288 291.949 149.041 291.984 148.795L294.996 149.305C294.914 149.528 294.832 149.863 294.75 150.309C294.667 150.756 294.597 151.255 294.538 151.807C294.491 152.359 294.45 152.91 294.415 153.462C294.38 154.014 294.362 154.513 294.362 154.96C294.362 155.324 294.386 155.682 294.433 156.034C294.491 156.375 294.609 156.657 294.785 156.88C294.961 157.091 295.231 157.197 295.595 157.197H295.842L295.401 160.262C294.626 160.262 293.986 160.127 293.481 159.857C292.976 159.598 292.571 159.246 292.266 158.8C291.761 159.363 291.186 159.739 290.54 159.927C289.894 160.127 289.225 160.226 288.532 160.226ZM286.7 155.488C286.759 156.052 286.987 156.504 287.387 156.844C287.798 157.173 288.314 157.338 288.937 157.338C289.536 157.338 290.035 157.179 290.434 156.862C290.833 156.533 291.162 156.087 291.421 155.523C291.409 155.335 291.403 155.142 291.403 154.942C291.403 154.531 291.415 154.108 291.438 153.674C291.462 153.239 291.491 152.811 291.526 152.388C291.033 152.2 290.516 152.106 289.976 152.106C289.342 152.106 288.772 152.235 288.267 152.494C287.774 152.74 287.387 153.087 287.105 153.533C286.823 153.979 286.682 154.496 286.682 155.083C286.682 155.153 286.682 155.224 286.682 155.294C286.682 155.365 286.688 155.429 286.7 155.488ZM302.122 160.262C301.135 160.262 300.225 160.056 299.391 159.645C298.558 159.234 297.888 158.647 297.383 157.884C296.878 157.109 296.626 156.187 296.626 155.118C296.626 153.92 296.861 152.869 297.331 151.965C297.8 151.061 298.458 150.362 299.303 149.869C300.149 149.364 301.135 149.112 302.263 149.112C303.343 149.112 304.259 149.335 305.011 149.781C305.762 150.215 306.431 150.908 307.019 151.859L304.57 153.55C304.241 153.022 303.907 152.623 303.566 152.353C303.226 152.071 302.762 151.93 302.175 151.93C301.376 151.93 300.73 152.212 300.237 152.775C299.744 153.327 299.497 154.067 299.497 154.995C299.497 155.535 299.626 155.975 299.885 156.316C300.155 156.657 300.484 156.909 300.871 157.073C301.259 157.238 301.623 157.32 301.963 157.32C302.315 157.32 302.656 157.279 302.985 157.197C303.314 157.103 303.625 156.903 303.918 156.598C304.212 156.292 304.476 155.829 304.711 155.206L307.353 156.615C307.001 157.261 306.608 157.86 306.173 158.412C305.739 158.964 305.198 159.41 304.553 159.751C303.918 160.091 303.108 160.262 302.122 160.262ZM313.839 160.244C312.712 160.244 311.72 160.021 310.863 159.575C310.017 159.14 309.354 158.53 308.872 157.743C308.402 156.956 308.168 156.046 308.168 155.012C308.168 154.39 308.273 153.738 308.485 153.057C308.696 152.364 309.037 151.719 309.506 151.12C309.976 150.521 310.592 150.033 311.356 149.658C312.131 149.282 313.07 149.094 314.174 149.094C314.973 149.094 315.642 149.182 316.182 149.358C316.734 149.534 317.18 149.763 317.521 150.045C317.873 150.327 318.137 150.626 318.314 150.943C318.501 151.261 318.625 151.566 318.683 151.859C318.754 152.141 318.789 152.376 318.789 152.564C318.789 153.703 318.308 154.584 317.345 155.206C316.394 155.817 315.043 156.122 313.293 156.122C312.894 156.122 312.512 156.105 312.148 156.069C311.796 156.034 311.467 155.993 311.162 155.946C311.385 156.533 311.755 156.968 312.272 157.25C312.788 157.52 313.323 157.655 313.875 157.655C314.673 157.655 315.378 157.514 315.988 157.232C316.599 156.938 317.175 156.492 317.715 155.893L319.282 158.148C318.907 158.453 318.484 158.77 318.014 159.099C317.556 159.428 316.992 159.698 316.323 159.909C315.654 160.132 314.826 160.244 313.839 160.244ZM314.227 151.736C313.534 151.736 312.923 151.912 312.395 152.265C311.867 152.617 311.479 153.081 311.232 153.656C311.526 153.703 311.814 153.744 312.096 153.779C312.389 153.803 312.677 153.815 312.959 153.815C313.217 153.815 313.511 153.791 313.839 153.744C314.18 153.697 314.509 153.627 314.826 153.533C315.155 153.439 315.425 153.321 315.636 153.181C315.848 153.028 315.953 152.852 315.953 152.652C315.953 152.558 315.906 152.441 315.812 152.3C315.718 152.159 315.548 152.03 315.301 151.912C315.055 151.795 314.697 151.736 314.227 151.736ZM325.826 160.297C325.027 160.297 324.287 160.203 323.606 160.015C322.925 159.827 322.309 159.586 321.757 159.293C321.205 158.999 320.712 158.688 320.277 158.359L321.863 155.805C322.356 156.263 322.831 156.615 323.289 156.862C323.747 157.109 324.223 157.279 324.716 157.373C325.221 157.467 325.767 157.514 326.354 157.514C326.859 157.514 327.264 157.449 327.57 157.32C327.875 157.179 328.028 157.003 328.028 156.792C328.028 156.615 327.881 156.48 327.587 156.386C327.294 156.281 326.918 156.193 326.46 156.122C326.002 156.04 325.521 155.94 325.016 155.823C324.299 155.635 323.63 155.418 323.007 155.171C322.385 154.924 321.88 154.59 321.493 154.167C321.117 153.744 320.929 153.181 320.929 152.476C320.929 151.912 321.064 151.419 321.334 150.996C321.604 150.562 321.962 150.204 322.409 149.922C322.867 149.628 323.383 149.411 323.959 149.27C324.534 149.129 325.127 149.059 325.738 149.059C326.795 149.059 327.705 149.188 328.468 149.446C329.243 149.693 329.983 150.022 330.687 150.433L329.085 152.863C328.732 152.617 328.327 152.406 327.869 152.229C327.423 152.041 326.971 151.901 326.513 151.807C326.067 151.701 325.65 151.648 325.262 151.648C324.839 151.648 324.505 151.713 324.258 151.842C324.023 151.971 323.906 152.153 323.906 152.388C323.906 152.529 324.053 152.664 324.346 152.793C324.652 152.91 325.227 153.069 326.072 153.269C326.577 153.386 327.112 153.509 327.675 153.639C328.239 153.756 328.767 153.926 329.261 154.149C329.766 154.361 330.171 154.672 330.476 155.083C330.793 155.482 330.952 156.017 330.952 156.686C330.952 157.813 330.5 158.694 329.595 159.328C328.691 159.974 327.435 160.297 325.826 160.297ZM334.001 160.262C333.555 160.262 333.185 160.162 332.891 159.962C332.598 159.763 332.38 159.504 332.239 159.187C332.099 158.87 332.028 158.541 332.028 158.201C332.028 157.555 332.234 157.062 332.645 156.721C333.056 156.369 333.549 156.193 334.124 156.193C334.711 156.193 335.175 156.369 335.516 156.721C335.856 157.073 336.027 157.543 336.027 158.13C336.027 158.882 335.821 159.422 335.41 159.751C335.011 160.091 334.541 160.262 334.001 160.262Z" fill="black"/>
<path d="M25.5411 44.6081L84.8999 43.3315C89.5052 43.2325 93.2564 39.6014 93.505 35.0016L94.4925 16.7329C94.5147 16.3219 94.8545 16 95.2661 16C95.6777 16 96.0174 16.3219 96.0396 16.7329L97.0271 35.0016C97.2757 39.6014 101.027 43.2325 105.632 43.3315L164.991 44.6081C165.399 44.6168 165.725 44.9499 165.725 45.3578C165.725 45.7657 165.399 46.0988 164.991 46.1075L105.632 47.3841C101.027 47.4831 97.2757 51.1142 97.0271 55.714L96.0396 73.9827C96.0174 74.3937 95.6777 74.7156 95.2661 74.7156C94.8545 74.7156 94.5147 74.3937 94.4925 73.9827L93.505 55.714C93.2564 51.1142 89.5052 47.4831 84.8999 47.3841L25.5411 46.1075C25.1333 46.0988 24.8073 45.7657 24.8073 45.3578C24.8073 44.9499 25.1333 44.6168 25.5411 44.6081Z" fill="black"/>
<path fill-rule="evenodd" clip-rule="evenodd" d="M136.367 45.3578C136.367 55.0861 117.965 62.9725 95.266 62.9725C72.5666 62.9725 54.1651 55.0861 54.1651 45.3578C54.1651 35.6295 72.5666 27.7431 95.266 27.7431C117.965 27.7431 136.367 35.6295 136.367 45.3578ZM131.963 45.3578C131.963 49.0908 129.874 52.9008 122.872 55.9015C115.954 58.8667 106.2 60.7706 95.266 60.7706C84.3326 60.7706 74.5786 58.8667 67.6599 55.9015C60.6581 52.9008 58.5688 49.0908 58.5688 45.3578C58.5688 41.6248 60.6581 37.8148 67.6599 34.8141C74.5786 31.8489 84.3326 29.9449 95.266 29.9449C106.2 29.9449 115.954 31.8489 122.872 34.8141C129.874 37.8148 131.963 41.6248 131.963 45.3578Z" fill="url(#paint0_diamond_16_100)"/>
<path fill-rule="evenodd" clip-rule="evenodd" d="M140.628 17.8861C143.956 23.425 126.028 40.3083 100.585 55.596C75.142 70.8838 51.8183 78.7868 48.4903 73.248C46.5913 70.0875 51.6129 63.2334 61.0023 55.0898C61.4586 55.3842 61.9349 55.6724 62.4305 55.9541C61.5796 56.7033 60.7717 57.4382 60.0091 58.1563C53.1876 64.5804 52.1491 68.1568 53.4262 70.2822C54.7033 72.4076 58.3485 73.1697 67.2232 70.1626C75.9925 67.1911 87.5769 61.706 99.8319 54.3424C112.087 46.9789 122.369 39.3256 129.109 32.9778C135.931 26.5537 136.969 22.9773 135.692 20.8519C134.415 18.7265 130.77 17.9644 121.895 20.9715C116.979 22.6373 111.178 25.093 104.871 28.2267C103.947 28.1319 103.011 28.0505 102.065 27.983C121.781 17.8252 137.904 13.3521 140.628 17.8861Z" fill="url(#paint1_radial_16_100)"/>
<g opacity="0.79">
<path d="M40.2202 32.8807L38.7523 33.6147L40.2202 34.3486L40.9541 35.8165L41.6881 34.3486L43.156 33.6147L41.6881 32.8807L40.9541 31.4128L40.2202 32.8807Z" fill="black" fill-opacity="0.56"/>
<path d="M139.303 57.8349L137.835 58.5688L139.303 59.3028L140.037 60.7706L140.771 59.3028L142.239 58.5688L140.771 57.8349L140.037 56.367L139.303 57.8349Z" fill="black" fill-opacity="0.56"/>
<path d="M144.196 29.7003L142.239 30.6789L144.196 31.6575L145.174 33.6147L146.153 31.6575L148.11 30.6789L146.153 29.7003L145.174 27.7431L144.196 29.7003Z" fill="black" fill-opacity="0.8"/>
<path d="M125.602 67.6208L121.688 69.578L125.602 71.5352L127.56 75.4495L129.517 71.5352L133.431 69.578L129.517 67.6208L127.56 63.7064L125.602 67.6208Z" fill="black"/>
<path d="M55.1437 21.3823L51.9633 22.9725L55.1437 24.5627L56.734 27.7431L58.3242 24.5627L61.5046 22.9725L58.3242 21.3823L56.734 18.2018L55.1437 21.3823Z" fill="black"/>
</g>
<path d="M28.7062 84.4644C28.7062 85.7477 28.3341 87.5444 27.5898 89.8547C26.8451 92.1649 25.2407 95.9382 22.7764 101.175H28.6294C29.6559 95.425 30.1692 89.7265 30.1692 84.0791C30.1692 79.3046 28.1928 76.9174 24.24 76.9174C21.827 76.9174 19.8504 77.7645 18.3102 79.4587C16.7701 81.1528 16 83.7711 16 87.3134V125.663C16 128.897 16.552 131.208 17.6559 132.594C18.7594 133.98 20.4406 134.673 22.6996 134.673C24.9587 134.673 26.6657 133.479 27.8208 131.092C28.976 128.705 29.5021 125.612 29.3993 121.813L29.1683 112.495H28.09L27.8589 121.582C27.7565 124.149 27.487 126.1 27.0504 127.434C26.6141 128.769 25.9084 129.437 24.9331 129.437C24.009 129.437 23.2516 129 22.6609 128.128C22.0707 127.255 21.7756 125.56 21.7756 123.045V86.5435C21.7756 85.0546 21.9552 83.9509 22.3144 83.2324C22.674 82.5136 23.3159 82.1541 24.24 82.1541C25.8825 82.1541 27.0377 82.3337 27.7053 82.693C28.3726 83.0526 28.7062 83.6431 28.7062 84.4644ZM34.553 77.6879V133.903H39.9439V104.717C39.9439 101.124 40.3031 98.133 41.0216 95.7457C41.7404 93.3585 42.6389 92.1649 43.717 92.1649C44.4359 92.1649 44.9236 92.4729 45.18 93.089C45.4368 93.705 45.5652 94.7319 45.5652 96.1697V133.903H50.9555V93.1664C50.9555 91.2666 50.4935 89.7521 49.5694 88.6228C48.6453 87.4934 47.4646 86.9288 46.0273 86.9288C44.3331 86.9288 42.8956 87.8529 41.7146 89.7011C40.5341 91.5492 39.5844 95.1172 38.8656 100.405L38.0957 100.251L39.9439 88.546V77.6879H34.553ZM63.8147 134.673C66.279 134.673 68.2941 133.826 69.86 132.132C71.4255 130.438 72.2083 127.819 72.2083 124.277V95.9387C72.2083 92.7043 71.5923 90.3941 70.3601 89.008C69.128 87.6219 67.2542 86.9288 64.7388 86.9288C62.2746 86.9288 60.2595 87.7759 58.6935 89.47C57.128 91.1642 56.3452 93.7825 56.3452 97.3248V125.663C56.3452 128.897 56.9613 131.208 58.1934 132.594C59.4255 133.98 61.2993 134.673 63.8147 134.673ZM63.8147 92.1649C64.7388 92.1649 65.4704 92.6013 66.0094 93.4742C66.5485 94.3471 66.818 96.0413 66.818 98.5567V125.047C66.818 126.536 66.6769 127.64 66.3947 128.359C66.112 129.077 65.5601 129.437 64.7388 129.437C63.7635 129.437 63.019 129 62.5054 128.128C61.9921 127.255 61.7355 125.56 61.7355 123.045V96.5543C61.7355 95.0658 61.8766 93.9621 62.1589 93.2432C62.4415 92.5243 62.9934 92.1649 63.8147 92.1649ZM89.9121 94.2441C89.9121 95.2198 89.5142 96.6317 88.7183 98.4799C87.9224 100.328 86.3438 103.562 83.9823 108.183H89.8347C90.8616 102.792 91.375 98.1205 91.375 94.1673C91.375 89.3416 89.3984 86.9288 85.4453 86.9288C83.135 86.9288 81.2484 87.7759 79.7852 89.47C78.3221 91.1642 77.5905 93.8081 77.5905 97.4016V125.663C77.5905 128.897 78.104 131.208 79.1309 132.594C80.1578 133.98 81.7493 134.673 83.9055 134.673C86.1641 134.673 87.871 133.479 89.0261 131.092C90.1812 128.705 90.7076 125.612 90.6052 121.813L90.3742 112.495H89.2958L89.0648 121.582C88.9108 126.819 88.0123 129.437 86.3693 129.437C85.2912 129.437 84.4571 129 83.8668 128.128C83.2766 127.255 82.9814 125.56 82.9814 123.045V96.6317C82.9814 95.0916 83.174 93.9621 83.559 93.2432C83.944 92.5243 84.6756 92.1649 85.7537 92.1649C87.2422 92.1649 88.3074 92.3318 88.9493 92.6656C89.5912 92.9995 89.9121 93.5256 89.9121 94.2441ZM103.854 134.673C106.318 134.673 108.333 133.826 109.899 132.132C111.465 130.438 112.248 127.819 112.248 124.277V95.9387C112.248 92.7043 111.632 90.3941 110.4 89.008C109.168 87.6219 107.294 86.9288 104.778 86.9288C102.314 86.9288 100.299 87.7759 98.7334 89.47C97.1674 91.1642 96.3845 93.7825 96.3845 97.3248V125.663C96.3845 128.897 97.0005 131.208 98.2327 132.594C99.4648 133.98 101.339 134.673 103.854 134.673ZM103.854 92.1649C104.778 92.1649 105.51 92.6013 106.049 93.4742C106.588 94.3471 106.857 96.0413 106.857 98.5567V125.047C106.857 126.536 106.716 127.64 106.434 128.359C106.152 129.077 105.6 129.437 104.778 129.437C103.803 129.437 103.059 129 102.545 128.128C102.032 127.255 101.775 125.56 101.775 123.045V96.5543C101.775 95.0658 101.916 93.9621 102.199 93.2432C102.481 92.5243 103.033 92.1649 103.854 92.1649ZM116.475 109.723H129.413V107.181H116.475V109.723ZM156.515 133.903H150.585L151.587 93.7052H150.74L145.811 130.053H144.04L137.648 93.7052H136.878L138.957 133.903H132.874L133.644 77.6879H139.42L145.58 114.112H146.427L150.894 77.6879H155.745L156.515 133.903ZM165.447 134.673C166.525 134.673 167.424 134.339 168.142 133.672C168.861 133.005 169.503 131.709 170.067 129.783C170.632 127.858 171.094 125.047 171.454 121.351L172.223 121.505C172.018 124.483 171.916 126.382 171.916 127.203C171.916 130.079 172.224 132.042 172.84 133.095C173.456 134.147 174.457 134.673 175.843 134.673C177.537 134.673 178.692 133.929 179.308 132.44C179.924 130.951 180.207 128.846 180.156 126.125L179.925 112.957H178.846L178.615 126.434C178.564 127.614 178.436 128.41 178.23 128.821C178.025 129.231 177.717 129.437 177.306 129.437C176.793 129.437 176.395 129.142 176.113 128.551C175.83 127.961 175.689 126.716 175.689 124.816V93.2432C175.689 91.241 175.124 89.6879 173.995 88.584C172.865 87.4805 171.197 86.9288 168.989 86.9288C167.449 86.9288 166.012 87.4549 164.677 88.5072C163.342 89.5595 162.29 90.8943 161.52 92.5114C160.75 94.1286 160.365 95.7586 160.365 97.4016C160.365 101.971 161.032 105.847 162.367 109.029H169.76C166.731 106.001 164.703 103.588 163.676 101.791C162.649 99.994 162.136 98.2485 162.136 96.5543C162.136 95.117 162.495 94.0262 163.214 93.2819C163.932 92.5372 165.242 92.1649 167.141 92.1649C168.425 92.1649 169.272 92.3703 169.682 92.7811C170.093 93.192 170.298 94.0135 170.298 95.2456V109.492L168.912 110.801C166.807 112.752 165.242 114.292 164.215 115.421C163.188 116.551 162.392 117.783 161.827 119.118C161.263 120.453 160.981 122.044 160.981 123.892V129.206C160.981 132.851 162.469 134.673 165.447 134.673ZM167.68 129.052C166.808 129.052 166.371 128.436 166.371 127.203V119.503C166.371 117.757 166.628 116.307 167.141 115.152C167.655 113.996 168.707 112.649 170.298 111.109V117.269C170.298 120.863 170.067 123.725 169.605 125.856C169.143 127.986 168.502 129.052 167.68 129.052ZM183.999 128.435C183.999 130.335 184.461 131.85 185.385 132.979C186.309 134.108 187.49 134.673 188.927 134.673C190.621 134.673 192.059 133.749 193.24 131.901C194.42 130.053 195.37 126.485 196.089 121.197L196.859 121.351L195.088 133.056V133.903H200.401V77.6879H195.01V87.0056L196.936 89.008L196.474 89.47C194.626 87.7759 192.855 86.9288 191.16 86.9288C188.696 86.9288 186.886 87.9684 185.731 90.0476C184.576 92.1268 183.999 95.4508 183.999 100.02V128.435ZM189.543 99.5576C189.543 96.4261 189.71 94.3598 190.043 93.3587C190.377 92.3576 190.929 91.8571 191.699 91.8571C192.88 91.8571 193.984 92.3705 195.01 93.3974V117.115C195.01 119.374 194.844 121.453 194.51 123.353C194.176 125.253 193.74 126.742 193.201 127.82C192.662 128.898 192.11 129.437 191.545 129.437C190.21 129.437 189.543 128.102 189.543 125.432V99.5576ZM211.181 123.045C211.181 125.56 211.553 127.255 212.298 128.128C213.042 129 214.056 129.437 215.339 129.437C217.495 129.437 218.65 126.819 218.804 121.582L219.035 112.572H220.114L220.345 121.813C220.448 125.612 219.857 128.705 218.573 131.092C217.29 133.479 215.391 134.673 212.875 134.673C210.462 134.673 208.678 133.98 207.523 132.594C206.368 131.208 205.79 128.897 205.79 125.663V97.4016C205.79 93.8081 206.535 91.1642 208.024 89.47C209.512 87.7759 211.489 86.9288 213.953 86.9288C216.161 86.9288 217.791 87.6346 218.843 89.0461C219.895 90.458 220.422 92.7811 220.422 96.0155V108.336H211.181V123.045ZM213.414 92.1649C212.541 92.1649 211.951 92.5243 211.643 93.2432C211.335 93.9621 211.181 95.0916 211.181 96.6317V107.259H215.801V98.5567C215.801 95.9385 215.621 94.2187 215.262 93.3974C214.903 92.5757 214.287 92.1649 213.414 92.1649ZM231.205 77.6879H225.815V133.903H231.205V77.6879ZM241.977 123.045C241.977 125.56 242.349 127.255 243.094 128.128C243.838 129 244.852 129.437 246.136 129.437C248.292 129.437 249.447 126.819 249.601 121.582L249.832 112.572H250.91L251.141 121.813C251.244 125.612 250.654 128.705 249.37 131.092C248.087 133.479 246.187 134.673 243.672 134.673C241.259 134.673 239.475 133.98 238.319 132.594C237.164 131.208 236.587 128.897 236.587 125.663V97.4016C236.587 93.8081 237.331 91.1642 238.82 89.47C240.309 87.7759 242.285 86.9288 244.749 86.9288C246.957 86.9288 248.587 87.6346 249.64 89.0461C250.692 90.458 251.218 92.7811 251.218 96.0155V108.336H241.977V123.045ZM244.211 92.1649C243.338 92.1649 242.747 92.5243 242.439 93.2432C242.131 93.9621 241.977 95.0916 241.977 96.6317V107.259H246.598V98.5567C246.598 95.9385 246.418 94.2187 246.059 93.3974C245.7 92.5757 245.083 92.1649 244.211 92.1649ZM255.225 81.6153V77.6879H263.388V81.6153H255.225ZM262.002 87.6987H256.611V133.903H262.002V87.6987ZM267.393 87.6987V133.903H272.784V104.64C272.784 101.047 273.143 98.0691 273.862 95.7076C274.581 93.3458 275.479 92.1649 276.557 92.1649C277.276 92.1649 277.764 92.4729 278.02 93.089C278.277 93.705 278.406 94.7319 278.406 96.1697V133.903H283.796V93.1664C283.796 91.2666 283.334 89.7521 282.41 88.6228C281.486 87.4934 280.305 86.9288 278.868 86.9288C277.173 86.9288 275.736 87.8529 274.555 89.7011C273.374 91.5492 272.424 95.1172 271.706 100.405L270.935 100.251L272.784 88.546V87.6987H267.393ZM294.566 123.045C294.566 125.56 294.938 127.255 295.682 128.128C296.427 129 297.441 129.437 298.724 129.437C300.88 129.437 302.036 126.819 302.19 121.582L302.421 112.572H303.498L303.729 121.813C303.832 125.612 303.242 128.705 301.959 131.092C300.675 133.479 298.775 134.673 296.26 134.673C293.847 134.673 292.063 133.98 290.908 132.594C289.753 131.208 289.175 128.897 289.175 125.663V97.4016C289.175 93.8081 289.919 91.1642 291.408 89.47C292.897 87.7759 294.874 86.9288 297.338 86.9288C299.546 86.9288 301.175 87.6346 302.228 89.0461C303.28 90.458 303.807 92.7811 303.807 96.0155V108.336H294.566V123.045ZM296.799 92.1649C295.926 92.1649 295.336 92.5243 295.028 93.2432C294.72 93.9621 294.566 95.0916 294.566 96.6317V107.259H299.186V98.5567C299.186 95.9385 299.007 94.2187 298.647 93.3974C298.288 92.5757 297.672 92.1649 296.799 92.1649ZM323.523 125.201C323.523 123.713 323.112 121.89 322.291 119.734C321.47 117.578 320.161 114.395 318.364 110.185C316.669 106.386 315.399 103.357 314.552 101.098C313.705 98.8389 313.281 96.9907 313.281 95.5534C313.281 94.4753 313.512 93.6411 313.974 93.0509C314.436 92.4602 315.258 92.1649 316.439 92.1649C318.03 92.1649 319.172 92.3062 319.865 92.5888C320.558 92.8711 320.905 93.3716 320.905 94.0905C320.905 94.8606 320.61 95.9387 320.02 97.3248C319.429 98.7109 318.235 101.175 316.439 104.717H321.521C322.086 101.38 322.368 97.8122 322.368 94.0131C322.368 89.2902 320.391 86.9288 316.439 86.9288C313.923 86.9288 311.869 87.7116 310.278 89.2771C308.687 90.8431 307.891 93.2432 307.891 96.4775C307.891 98.3769 308.34 100.482 309.238 102.792C310.137 105.102 311.459 108.105 313.204 111.802C314.899 115.344 316.143 118.168 316.939 120.273C317.735 122.378 318.133 124.252 318.133 125.894C318.133 127.024 317.902 127.897 317.44 128.513C316.978 129.129 316.156 129.437 314.975 129.437C313.127 129.437 311.792 129.283 310.971 128.975C310.15 128.667 309.739 128.153 309.739 127.434C309.739 126.613 310.073 125.394 310.74 123.777C311.407 122.16 312.716 119.503 314.667 115.807H309.123C308.558 119.349 308.276 123.25 308.276 127.511C308.276 132.286 310.509 134.673 314.975 134.673C317.439 134.673 319.48 133.877 321.097 132.286C322.714 130.695 323.523 128.333 323.523 125.201Z" fill="black"/>
<defs>
<radialGradient id="paint0_diamond_16_100" cx="0" cy="0" r="1" gradientUnits="userSpaceOnUse" gradientTransform="translate(95.266 45.3578) rotate(90) scale(46.9725 109.602)">
<stop offset="0.285" stop-opacity="0.42"/>
<stop offset="0.505"/>
</radialGradient>
<radialGradient id="paint1_radial_16_100" cx="0" cy="0" r="1" gradientUnits="userSpaceOnUse" gradientTransform="translate(103.706 53.0642) rotate(-119.495) scale(41.7398 65.858)">
<stop offset="0.395"/>
<stop offset="1" stop-opacity="0"/>
</radialGradient>
</defs>
</svg>
